<mxfile host="Electron" agent="Mozilla/5.0 (Windows NT 10.0; Win64; x64) AppleWebKit/537.36 (KHTML, like Gecko) draw.io/24.7.8 Chrome/128.0.6613.36 Electron/32.0.1 Safari/537.36" version="24.7.8">
  <diagram name="Strona-1" id="Zn5LYyqRhjZq79wtHsqh">
    <mxGraphModel dx="615" dy="2349" grid="1" gridSize="10" guides="1" tooltips="1" connect="1" arrows="1" fold="1" page="1" pageScale="1" pageWidth="827" pageHeight="1169" math="0" shadow="0">
      <root>
        <mxCell id="0" />
        <mxCell id="1" parent="0" />
        <mxCell id="X1Q3lj4dIi6BZQwt9sdD-1" value="Web Controller" style="html=1;dropTarget=0;whiteSpace=wrap;" parent="1" vertex="1">
          <mxGeometry x="827" y="-870" width="180" height="90" as="geometry" />
        </mxCell>
        <mxCell id="X1Q3lj4dIi6BZQwt9sdD-2" value="" style="shape=module;jettyWidth=8;jettyHeight=4;" parent="X1Q3lj4dIi6BZQwt9sdD-1" vertex="1">
          <mxGeometry x="1" width="20" height="20" relative="1" as="geometry">
            <mxPoint x="-27" y="7" as="offset" />
          </mxGeometry>
        </mxCell>
        <mxCell id="X1Q3lj4dIi6BZQwt9sdD-3" value="Zarządzanie zasobami" style="html=1;dropTarget=0;whiteSpace=wrap;" parent="1" vertex="1">
          <mxGeometry x="1157" y="-870" width="180" height="90" as="geometry" />
        </mxCell>
        <mxCell id="X1Q3lj4dIi6BZQwt9sdD-4" value="" style="shape=module;jettyWidth=8;jettyHeight=4;" parent="X1Q3lj4dIi6BZQwt9sdD-3" vertex="1">
          <mxGeometry x="1" width="20" height="20" relative="1" as="geometry">
            <mxPoint x="-27" y="7" as="offset" />
          </mxGeometry>
        </mxCell>
        <mxCell id="X1Q3lj4dIi6BZQwt9sdD-5" value="" style="rounded=0;orthogonalLoop=1;jettySize=auto;html=1;endArrow=halfCircle;endFill=0;endSize=6;strokeWidth=1;sketch=0;exitX=1;exitY=0.5;exitDx=0;exitDy=0;" parent="1" source="X1Q3lj4dIi6BZQwt9sdD-1" target="X1Q3lj4dIi6BZQwt9sdD-7" edge="1">
          <mxGeometry relative="1" as="geometry">
            <mxPoint x="997" y="-950" as="sourcePoint" />
          </mxGeometry>
        </mxCell>
        <mxCell id="X1Q3lj4dIi6BZQwt9sdD-6" value="" style="rounded=0;orthogonalLoop=1;jettySize=auto;html=1;endArrow=oval;endFill=0;sketch=0;sourcePerimeterSpacing=0;targetPerimeterSpacing=0;endSize=10;exitX=0;exitY=0.5;exitDx=0;exitDy=0;" parent="1" source="X1Q3lj4dIi6BZQwt9sdD-3" target="X1Q3lj4dIi6BZQwt9sdD-7" edge="1">
          <mxGeometry relative="1" as="geometry">
            <mxPoint x="1267" y="-1045" as="sourcePoint" />
          </mxGeometry>
        </mxCell>
        <mxCell id="X1Q3lj4dIi6BZQwt9sdD-7" value="" style="ellipse;whiteSpace=wrap;html=1;align=center;aspect=fixed;fillColor=none;strokeColor=none;resizable=0;perimeter=centerPerimeter;rotatable=0;allowArrows=0;points=[];outlineConnect=1;" parent="1" vertex="1">
          <mxGeometry x="1077" y="-830" width="10" height="10" as="geometry" />
        </mxCell>
        <mxCell id="X1Q3lj4dIi6BZQwt9sdD-8" value="Repozytorium zasobów" style="html=1;dropTarget=0;whiteSpace=wrap;" parent="1" vertex="1">
          <mxGeometry x="1467" y="-870" width="180" height="90" as="geometry" />
        </mxCell>
        <mxCell id="X1Q3lj4dIi6BZQwt9sdD-9" value="" style="shape=module;jettyWidth=8;jettyHeight=4;" parent="X1Q3lj4dIi6BZQwt9sdD-8" vertex="1">
          <mxGeometry x="1" width="20" height="20" relative="1" as="geometry">
            <mxPoint x="-27" y="7" as="offset" />
          </mxGeometry>
        </mxCell>
        <mxCell id="X1Q3lj4dIi6BZQwt9sdD-10" value="" style="rounded=0;orthogonalLoop=1;jettySize=auto;html=1;endArrow=oval;endFill=0;sketch=0;sourcePerimeterSpacing=0;targetPerimeterSpacing=0;endSize=10;exitX=0.5;exitY=1;exitDx=0;exitDy=0;" parent="1" source="X1Q3lj4dIi6BZQwt9sdD-3" target="X1Q3lj4dIi6BZQwt9sdD-11" edge="1">
          <mxGeometry relative="1" as="geometry">
            <mxPoint x="1207" y="-880" as="sourcePoint" />
          </mxGeometry>
        </mxCell>
        <mxCell id="X1Q3lj4dIi6BZQwt9sdD-11" value="" style="ellipse;whiteSpace=wrap;html=1;align=center;aspect=fixed;fillColor=none;strokeColor=none;resizable=0;perimeter=centerPerimeter;rotatable=0;allowArrows=0;points=[];outlineConnect=1;" parent="1" vertex="1">
          <mxGeometry x="1242" y="-720" width="10" height="10" as="geometry" />
        </mxCell>
        <mxCell id="X1Q3lj4dIi6BZQwt9sdD-12" value="zasób" style="text;html=1;align=center;verticalAlign=middle;whiteSpace=wrap;rounded=0;" parent="1" vertex="1">
          <mxGeometry x="1260" y="-730" width="40" height="30" as="geometry" />
        </mxCell>
        <mxCell id="X1Q3lj4dIi6BZQwt9sdD-13" value="" style="rounded=0;orthogonalLoop=1;jettySize=auto;html=1;endArrow=halfCircle;endFill=0;endSize=6;strokeWidth=1;sketch=0;exitX=1;exitY=0.5;exitDx=0;exitDy=0;" parent="1" source="X1Q3lj4dIi6BZQwt9sdD-3" target="X1Q3lj4dIi6BZQwt9sdD-15" edge="1">
          <mxGeometry relative="1" as="geometry">
            <mxPoint x="1337" y="-885" as="sourcePoint" />
          </mxGeometry>
        </mxCell>
        <mxCell id="X1Q3lj4dIi6BZQwt9sdD-14" value="" style="rounded=0;orthogonalLoop=1;jettySize=auto;html=1;endArrow=oval;endFill=0;sketch=0;sourcePerimeterSpacing=0;targetPerimeterSpacing=0;endSize=10;exitX=0;exitY=0.5;exitDx=0;exitDy=0;" parent="1" source="X1Q3lj4dIi6BZQwt9sdD-8" target="X1Q3lj4dIi6BZQwt9sdD-15" edge="1">
          <mxGeometry relative="1" as="geometry">
            <mxPoint x="1461" y="-885" as="sourcePoint" />
          </mxGeometry>
        </mxCell>
        <mxCell id="X1Q3lj4dIi6BZQwt9sdD-15" value="" style="ellipse;whiteSpace=wrap;html=1;align=center;aspect=fixed;fillColor=none;strokeColor=none;resizable=0;perimeter=centerPerimeter;rotatable=0;allowArrows=0;points=[];outlineConnect=1;" parent="1" vertex="1">
          <mxGeometry x="1397" y="-830" width="10" height="10" as="geometry" />
        </mxCell>
        <mxCell id="X1Q3lj4dIi6BZQwt9sdD-16" value="JpaRepository" style="text;html=1;align=center;verticalAlign=middle;whiteSpace=wrap;rounded=0;" parent="1" vertex="1">
          <mxGeometry x="1362" y="-870" width="80" height="30" as="geometry" />
        </mxCell>
        <mxCell id="X1Q3lj4dIi6BZQwt9sdD-17" value="zasób" style="text;html=1;align=center;verticalAlign=middle;whiteSpace=wrap;rounded=0;" parent="1" vertex="1">
          <mxGeometry x="1052" y="-870" width="60" height="30" as="geometry" />
        </mxCell>
        <mxCell id="X1Q3lj4dIi6BZQwt9sdD-18" value="&lt;font style=&quot;font-size: 20px;&quot;&gt;Projektanci:&lt;/font&gt;&lt;div style=&quot;font-size: 20px;&quot;&gt;&lt;font style=&quot;font-size: 20px;&quot;&gt;• Karolina Linek&lt;br&gt;• Mateusz Pawlak&lt;/font&gt;&lt;/div&gt;" style="shape=note;whiteSpace=wrap;html=1;backgroundOutline=1;darkOpacity=0.05;fillColor=#fff2cc;strokeColor=#d6b656;align=left;spacingLeft=15;spacingBottom=0;" parent="1" vertex="1">
          <mxGeometry x="827" y="-1169" width="240" height="180" as="geometry" />
        </mxCell>
        <mxCell id="X1Q3lj4dIi6BZQwt9sdD-19" value="Założenia:&lt;br&gt;&lt;div&gt;• wyświetlanie zasobów - fizycznych i ludzkich oraz statusu dostępności lub przydziału&lt;/div&gt;&lt;div&gt;• możliwość dodawania zasobów przez organizacje pomocowe i przedstawicieli władz&lt;/div&gt;&lt;div&gt;• tworzenie zasobów na bazie przekazanych środków i ofert wsparcia darczyńców&lt;/div&gt;&lt;br&gt;Moduł obejmuje implementację interfejsu graficznego umożliwającego wyświetlanie zasobów (i ich atrybutów) oraz wykonywanie zaimplementowanych funkcji systemu związanych z dodawaniem i przydzielaniem zasobów. Ponad to moduł ma obsługiwać utrwalanie danych zasobów, a także zapewnić definicję odpowiednich punktów końcowych i wywołań w kontrolerze (Web Controller)." style="shape=note;size=20;whiteSpace=wrap;html=1;fillColor=#fff2cc;strokeColor=#d6b656;align=left;spacingLeft=5;" parent="1" vertex="1">
          <mxGeometry x="1170" y="-1169" width="484" height="209" as="geometry" />
        </mxCell>
        <mxCell id="X1Q3lj4dIi6BZQwt9sdD-20" value="" style="endArrow=none;dashed=1;html=1;rounded=0;entryX=0;entryY=1;entryDx=0;entryDy=0;exitX=0;exitY=0;exitDx=115;exitDy=0;exitPerimeter=0;" parent="1" source="X1Q3lj4dIi6BZQwt9sdD-23" target="X1Q3lj4dIi6BZQwt9sdD-12" edge="1">
          <mxGeometry width="50" height="50" relative="1" as="geometry">
            <mxPoint x="1350" y="-640" as="sourcePoint" />
            <mxPoint x="1240" y="-700" as="targetPoint" />
          </mxGeometry>
        </mxCell>
        <mxCell id="X1Q3lj4dIi6BZQwt9sdD-21" value="" style="endArrow=none;dashed=1;html=1;rounded=0;exitX=0.5;exitY=0;exitDx=0;exitDy=0;exitPerimeter=0;" parent="1" source="X1Q3lj4dIi6BZQwt9sdD-22" edge="1">
          <mxGeometry width="50" height="50" relative="1" as="geometry">
            <mxPoint x="1040" y="-690" as="sourcePoint" />
            <mxPoint x="1080" y="-810" as="targetPoint" />
          </mxGeometry>
        </mxCell>
        <mxCell id="X1Q3lj4dIi6BZQwt9sdD-22" value="Interfejs umożliwający pobieranie zasobów do wyświetlenia, oraz dodawanie (tworzenie) zasobów przez GUI." style="shape=note;size=20;whiteSpace=wrap;html=1;fillColor=#fff2cc;strokeColor=#d6b656;align=left;spacingLeft=5;" parent="1" vertex="1">
          <mxGeometry x="860" y="-664" width="250" height="80" as="geometry" />
        </mxCell>
        <mxCell id="X1Q3lj4dIi6BZQwt9sdD-23" value="Interfejs umożliwający przekazywanie i kontrolowaną modyfikację (m.in. przydzielanie) zasobów na potrzeby komponentu zarządzania zadaniami." style="shape=note;size=20;whiteSpace=wrap;html=1;fillColor=#fff2cc;strokeColor=#d6b656;align=left;spacingLeft=5;" parent="1" vertex="1">
          <mxGeometry x="1300" y="-630" width="250" height="80" as="geometry" />
        </mxCell>
      </root>
    </mxGraphModel>
  </diagram>
</mxfile>
